#define mail_width 16
#define mail_height 16

static unsigned char mail_bits[] = {
  0x00, 0x00, 0x00, 0x00, 0x00, 0x00, 0x00, 0x00, 0xf0, 0x1f, 0xd0, 0x17, 
  0xb0, 0x1b, 0x70, 0x1d, 0xb0, 0x1a, 0xd0, 0x17, 0xf0, 0x1f, 0x00, 0x00, 
  0x00, 0x00, 0x00, 0x00, 0x00, 0x00, 0x00, 0x00 };
